HIERARCHY
ROOT Hips
{
	OFFSET -0.001795 -0.223333 0.028219
	CHANNELS 6 Xposition Yposition Zposition Zrotation Yrotation Xrotation 
	JOINT LeftUpLeg
	{
		OFFSET 0.069520 -0.091406 -0.006815
		CHANNELS 3 Zrotation Yrotation Xrotation
		JOINT LeftLeg
		{
			OFFSET 0.034277 -0.375199 -0.004496
			CHANNELS 3 Zrotation Yrotation Xrotation
			JOINT LeftFoot
			{
				OFFSET -0.013596 -0.397961 -0.043693
				CHANNELS 3 Zrotation Yrotation Xrotation
				JOINT LeftToe
				{
					OFFSET 0.026358 -0.055791 0.119288
					CHANNELS 3 Zrotation Yrotation Xrotation
					End Site
					{
						OFFSET 0.000000 0.000000 0.000000
					}
				}
			}
		}
	}
	JOINT RightUpLeg
	{
		OFFSET -0.067670 -0.090522 -0.004320
		CHANNELS 3 Zrotation Yrotation Xrotation
		JOINT RightLeg
		{
			OFFSET -0.038290 -0.382569 -0.008850
			CHANNELS 3 Zrotation Yrotation Xrotation
			JOINT RightFoot
			{
				OFFSET 0.015774 -0.398415 -0.042312
				CHANNELS 3 Zrotation Yrotation Xrotation
				JOINT RightToe
				{
					OFFSET -0.025372 -0.048144 0.123348
					CHANNELS 3 Zrotation Yrotation Xrotation
					End Site
					{
						OFFSET 0.000000 0.000000 0.000000
					}
				}
			}
		}
	}
	JOINT Spine
	{
		OFFSET -0.002533 0.108963 -0.026696
		CHANNELS 3 Zrotation Yrotation Xrotation
		JOINT Spine1
		{
			OFFSET 0.005487 0.135180 0.001092
			CHANNELS 3 Zrotation Yrotation Xrotation
			JOINT Spine2
			{
				OFFSET 0.001457 0.052922 0.025425
				CHANNELS 3 Zrotation Yrotation Xrotation
				JOINT Neck
				{
					OFFSET -0.002778 0.213870 -0.042857
					CHANNELS 3 Zrotation Yrotation Xrotation
					JOINT Head
					{
						OFFSET 0.005152 0.064970 0.051349
						CHANNELS 3 Zrotation Yrotation Xrotation
						End Site
						{
							OFFSET 0.000000 0.000000 0.000000
						}
					}
				}
				JOINT LeftShoulder
				{
					OFFSET 0.078845 0.121749 -0.034090
					CHANNELS 3 Zrotation Yrotation Xrotation
					JOINT LeftArm
					{
						OFFSET 0.090977 0.030469 -0.008868
						CHANNELS 3 Zrotation Yrotation Xrotation
						JOINT LeftForeArm
						{
							OFFSET 0.259612 -0.012772 -0.027456
							CHANNELS 3 Zrotation Yrotation Xrotation
							JOINT LeftHand
							{
								OFFSET 0.249234 0.008986 -0.001171
								CHANNELS 3 Zrotation Yrotation Xrotation
								End Site
								{
									OFFSET 0.000000 0.000000 0.000000
								}
							}
						}
					}
				}
				JOINT RightShoulder
				{
					OFFSET -0.081759 0.118833 -0.038615
					CHANNELS 3 Zrotation Yrotation Xrotation
					JOINT RightArm
					{
						OFFSET -0.096012 0.032551 -0.009143
						CHANNELS 3 Zrotation Yrotation Xrotation
						JOINT RightForeArm
						{
							OFFSET -0.253742 -0.013329 -0.021401
							CHANNELS 3 Zrotation Yrotation Xrotation
							JOINT RightHand
							{
								OFFSET -0.255298 0.007772 -0.005559
								CHANNELS 3 Zrotation Yrotation Xrotation
								End Site
								{
									OFFSET 0.000000 0.000000 0.000000
								}
							}
						}
					}
				}
			}
		}
	}
}
MOTION
Frames: 8
Frame Time: 0.050000
-0.045460 0.866534 2.125592 -4.301791 -17.392513 8.512146 3.704442 1.912000 -59.981875 6.154283 -3.140977 63.770573 4.640504 7.266586 -9.010604 0.000000 0.000000 0.000000 3.894999 -1.726902 15.953576 -7.020214 3.514600 20.760142 3.561554 17.807427 -7.987291 0.000000 0.000000 0.000000 -5.686783 1.940667 29.027239 -4.125147 2.545351 7.236476 -2.909319 17.086748 -1.342303 10.853926 -3.704422 -17.920929 0.000000 0.000000 0.000000 -29.354749 -5.520844 -4.383883 -40.510928 1.848152 -3.444779 19.763019 -69.169818 -13.620272 0.000000 0.000000 0.000000 13.629984 10.756627 6.456710 42.845610 31.055165 6.828857 -68.914414 73.399823 -45.110812 0.000000 0.000000 0.000000 
-0.051950 0.893265 2.308440 -2.817845 -15.693638 10.484181 3.819326 1.683543 -62.887460 3.254712 -1.556035 50.227265 0.716324 2.125986 2.176687 0.000000 0.000000 0.000000 0.809417 -1.401576 22.395796 -6.496630 2.682739 17.090268 11.757507 11.464047 17.239035 0.000000 0.000000 0.000000 -8.002774 2.177734 24.944202 -3.653164 2.093010 5.525099 -2.497145 19.301377 -0.674713 13.675193 -6.179335 -14.232733 0.000000 0.000000 0.000000 -27.661917 -2.173121 -6.853012 -38.760350 7.568022 -4.913116 -10.633482 -77.806465 8.208256 0.000000 0.000000 0.000000 14.185870 7.969273 5.566377 41.996219 27.161631 5.098946 -81.035682 80.402181 -60.903402 0.000000 0.000000 0.000000 
-0.057346 0.919100 2.495438 -1.856641 -14.159076 12.018118 3.810536 0.908067 -59.862658 0.320243 -0.070255 40.714359 0.555238 3.932305 9.504204 0.000000 0.000000 0.000000 0.431732 -1.541482 26.968774 -7.581070 2.770984 16.133283 13.092955 9.161827 24.155835 0.000000 0.000000 0.000000 -7.980819 1.693962 20.271945 -4.786732 2.568808 4.479897 -2.032197 19.760829 0.717968 12.417630 -6.844389 -9.187356 0.000000 0.000000 0.000000 -25.685247 1.882974 -8.714895 -38.064142 14.494023 -7.089563 -73.424883 -77.881001 61.553411 0.000000 0.000000 0.000000 15.198989 4.695803 4.045135 41.952400 20.217329 2.451428 -155.598864 84.035605 -140.732686 0.000000 0.000000 0.000000 
-0.060277 0.934471 2.678810 -0.641284 -13.544956 10.453170 2.554821 -0.233103 -55.963055 -0.738919 0.396077 37.023111 -0.791103 3.133510 14.649568 0.000000 0.000000 0.000000 -0.540374 -1.318811 29.279269 -6.299095 3.450730 23.046000 11.297968 7.564921 22.614826 0.000000 0.000000 0.000000 -9.326159 1.843023 18.930622 -5.089316 2.766835 5.096217 -2.416677 21.458588 -1.063985 12.449487 -8.148645 -5.067382 0.000000 0.000000 0.000000 -24.568198 3.548949 -9.999078 -38.413373 20.229736 -8.763662 -108.239494 -71.462367 88.010985 0.000000 0.000000 0.000000 15.301446 2.610886 3.277704 41.799193 12.148526 -0.266233 166.609594 78.781591 177.906578 0.000000 0.000000 0.000000 
-0.062178 0.939072 2.855152 -0.535945 -12.032199 8.998806 0.957355 -1.577118 -52.255206 0.060904 -0.159143 32.417335 -2.158564 2.263961 18.693827 0.000000 0.000000 0.000000 0.753296 -1.857322 27.518843 -4.108952 4.724744 36.619153 6.392729 5.800590 12.453654 0.000000 0.000000 0.000000 -9.284658 1.802883 19.949438 -4.548284 2.473317 5.328266 -4.215820 23.693879 -1.314241 15.109762 -9.783640 -6.014238 0.000000 0.000000 0.000000 -24.911343 4.476183 -11.630802 -37.031936 22.328507 -8.885395 -121.188076 -67.043377 96.873009 0.000000 0.000000 0.000000 17.609401 -0.719244 2.393857 40.826280 8.543012 -1.790279 158.361815 75.955055 168.620055 0.000000 0.000000 0.000000 
-0.064712 0.938668 3.026761 0.175324 -9.157435 4.839989 -1.636718 -3.204896 -43.860821 -0.852307 0.007598 28.053690 0.760421 5.804196 15.237743 0.000000 0.000000 0.000000 1.413488 -1.967300 22.113247 2.199765 3.940665 58.933943 2.292271 2.310065 5.323404 0.000000 0.000000 0.000000 -9.699514 1.796308 22.261077 -5.220930 2.811405 5.470998 -1.878352 24.358974 0.822712 13.992192 -7.975399 -8.472414 0.000000 0.000000 0.000000 -24.761767 3.444477 -11.418228 -39.911540 20.994717 -9.376487 -129.088856 -62.613646 100.700023 0.000000 0.000000 0.000000 14.045209 -2.390735 1.114137 46.857208 3.563708 -3.170163 158.140529 75.744001 169.836126 0.000000 0.000000 0.000000 
-0.066406 0.934745 3.196629 -0.007286 -4.324357 0.727338 -5.134809 -4.330167 -34.413566 0.882903 -1.018926 29.748300 1.231556 4.685209 6.376739 0.000000 0.000000 0.000000 1.237364 -1.021204 9.481957 8.314556 -1.901365 84.056931 1.025616 0.107273 4.666815 0.000000 0.000000 0.000000 -10.037909 1.770533 27.114494 -3.491070 1.738413 2.706944 0.776102 23.361996 3.813874 14.058100 -6.401700 -13.135050 0.000000 0.000000 0.000000 -26.556287 2.251966 -11.643724 -41.871859 17.270342 -8.587297 -133.319766 -62.457106 105.638202 0.000000 0.000000 0.000000 12.415320 -2.687758 0.744565 52.850001 -0.773928 -4.969859 144.358505 77.576751 153.961176 0.000000 0.000000 0.000000 
-0.066078 0.933061 3.370800 -0.554875 -0.826800 -1.930770 -7.651813 -3.412145 -21.656294 2.819064 -2.322527 33.477337 2.520575 1.450623 -9.447500 0.000000 0.000000 0.000000 0.288952 0.936625 -9.153687 8.469686 -5.584990 99.736171 2.327462 -0.047534 11.034720 0.000000 0.000000 0.000000 -7.058339 0.685088 28.542000 -2.897623 1.422903 2.473881 0.612492 17.454776 5.714313 12.120411 -5.677954 -12.561750 0.000000 0.000000 0.000000 -28.207821 2.551357 -10.767369 -42.723907 12.294188 -7.474998 -137.377474 -61.367637 111.495590 0.000000 0.000000 0.000000 16.000110 -2.761208 0.394239 51.308108 -6.589275 -7.912237 127.422208 76.864998 130.059813 0.000000 0.000000 0.000000 
